<svg xmlns="http://www.w3.org/2000/svg" xmlns:xlink="http://www.w3.org/1999/xlink" version="1.1" x="0px" y="0px" viewBox="0 0 64 80" style="enable-background:new 0 0 64 64;" xml:space="preserve"><g><g><path d="M53,31c-0.552,0-1,0.448-1,1v20c0,1.654-1.346,3-3,3H5c-1.654,0-3-1.346-3-3V22c0-1.654,1.346-3,3-3h34    c0.552,0,1-0.448,1-1s-0.448-1-1-1H5c-2.757,0-5,2.243-5,5v30c0,2.757,2.243,5,5,5h44c2.757,0,5-2.243,5-5V32    C54,31.448,53.552,31,53,31z"/><path d="M43.077,27.331c-0.369-0.41-1.001-0.445-1.412-0.074L29.817,37.919c-1.549,1.395-4.085,1.395-5.635,0L5.669,21.257    c-0.411-0.371-1.043-0.336-1.412,0.074c-0.37,0.411-0.336,1.043,0.074,1.412l16.771,15.094L4.375,51.219    c-0.432,0.345-0.501,0.974-0.156,1.405C4.417,52.872,4.707,53,5,53c0.219,0,0.44-0.072,0.624-0.219l16.984-13.587l0.236,0.212    C23.987,40.434,25.463,41,27,41s3.013-0.566,4.155-1.595l0.236-0.212l16.984,13.588C48.56,52.928,48.78,53,49,53    c0.293,0,0.584-0.128,0.781-0.375c0.345-0.431,0.275-1.061-0.156-1.405L32.897,37.837l10.105-9.094    C43.413,28.374,43.446,27.742,43.077,27.331z"/><path d="M53,7c-6.065,0-11,4.935-11,11s4.935,11,11,11s11-4.935,11-11S59.065,7,53,7z M53,27c-4.962,0-9-4.038-9-9s4.038-9,9-9    s9,4.038,9,9S57.962,27,53,27z"/><path d="M57,17h-3v-3c0-0.552-0.448-1-1-1s-1,0.448-1,1v3h-3c-0.552,0-1,0.448-1,1s0.448,1,1,1h3v3c0,0.552,0.448,1,1,1    s1-0.448,1-1v-3h3c0.552,0,1-0.448,1-1S57.552,17,57,17z"/></g></g><text x="0" y="79" fill="#000000" font-size="5px" font-weight="bold" font-family="'Helvetica Neue', Helvetica, Arial-Unicode, Arial, Sans-serif">Created by Berkah Icon</text><text x="0" y="84" fill="#000000" font-size="5px" font-weight="bold" font-family="'Helvetica Neue', Helvetica, Arial-Unicode, Arial, Sans-serif">from the Noun Project</text></svg>